<svg width="24" height="24" viewBox="0 0 24 24" fill="none" xmlns="http://www.w3.org/2000/svg">
<circle cx="12" cy="12" r="12" fill="#747474"/>
<path d="M7.67756 17.3333C7.96824 17.3333 8.22101 17.2196 8.41058 17.0174L11.9872 13.4155L15.5891 17.0174C15.7787 17.2069 16.0188 17.3333 16.3095 17.3333C16.8656 17.3333 17.3205 16.8657 17.3205 16.3096C17.3205 16.019 17.2194 15.7788 17.0172 15.5893L13.428 12L17.0299 8.38546C17.2447 8.17061 17.3332 7.95576 17.3332 7.67772C17.3332 7.109 16.8782 6.66666 16.3221 6.66666C16.0567 6.66666 15.8419 6.75513 15.627 6.96998L11.9872 10.5845L8.3853 6.98262C8.19573 6.78041 7.96824 6.69194 7.67756 6.69194C7.12148 6.69194 6.6665 7.12164 6.6665 7.69036C6.6665 7.9684 6.78025 8.20853 6.96982 8.3981L10.5591 12L6.96982 15.6019C6.78025 15.7788 6.6665 16.0316 6.6665 16.3096C6.6665 16.8657 7.12148 17.3333 7.67756 17.3333Z" fill="white"/>
</svg>
